<mxfile host="app.diagrams.net" modified="2021-11-05T16:24:46.268Z" agent="5.0 (Windows)" etag="pJuubz5QbV-thv9LqgNl" version="15.6.8" type="github">
  <diagram name="Page-1" id="e3a06f82-3646-2815-327d-82caf3d4e204">
    <mxGraphModel dx="2028" dy="1300" grid="1" gridSize="10" guides="1" tooltips="1" connect="1" arrows="1" fold="1" page="1" pageScale="1.5" pageWidth="1169" pageHeight="826" background="none" math="0" shadow="0">
      <root>
        <mxCell id="0" style=";html=1;" />
        <mxCell id="1" style=";html=1;" parent="0" />
        <mxCell id="6a7d8f32e03d9370-61" value="Outside Networks" style="whiteSpace=wrap;html=1;fillColor=#f8cecc;fontSize=14;strokeColor=none;verticalAlign=top;" parent="1" vertex="1">
          <mxGeometry x="1084" y="296" width="493" height="360" as="geometry" />
        </mxCell>
        <mxCell id="6a7d8f32e03d9370-58" value="Residential Private Networks" style="whiteSpace=wrap;html=1;fillColor=#dae8fc;fontSize=14;strokeColor=none;verticalAlign=top;" parent="1" vertex="1">
          <mxGeometry x="510" y="420" width="310" height="318" as="geometry" />
        </mxCell>
        <mxCell id="6a7d8f32e03d9370-36" style="edgeStyle=none;rounded=0;html=1;startSize=10;endSize=10;jettySize=auto;orthogonalLoop=1;fontSize=14;endArrow=none;endFill=0;strokeWidth=2;" parent="1" source="6a7d8f32e03d9370-1" target="6a7d8f32e03d9370-14" edge="1">
          <mxGeometry relative="1" as="geometry" />
        </mxCell>
        <mxCell id="6a7d8f32e03d9370-1" value="Client" style="verticalLabelPosition=bottom;aspect=fixed;html=1;verticalAlign=top;strokeColor=none;shape=mxgraph.citrix.laptop_2;fillColor=#66B2FF;gradientColor=#0066CC;fontSize=14;" parent="1" vertex="1">
          <mxGeometry x="619.9999999999999" y="460.5" width="116" height="86.5" as="geometry" />
        </mxCell>
        <mxCell id="6a7d8f32e03d9370-37" style="edgeStyle=none;rounded=0;html=1;startSize=10;endSize=10;jettySize=auto;orthogonalLoop=1;fontSize=14;endArrow=none;endFill=0;strokeWidth=2;" parent="1" source="6a7d8f32e03d9370-6" target="6a7d8f32e03d9370-14" edge="1">
          <mxGeometry relative="1" as="geometry" />
        </mxCell>
        <mxCell id="6a7d8f32e03d9370-6" value="Client" style="verticalLabelPosition=bottom;aspect=fixed;html=1;verticalAlign=top;strokeColor=none;shape=mxgraph.citrix.pda;fillColor=#66B2FF;gradientColor=#0066CC;fontSize=14;" parent="1" vertex="1">
          <mxGeometry x="540" y="624.5" width="30" height="61" as="geometry" />
        </mxCell>
        <mxCell id="6a7d8f32e03d9370-51" style="edgeStyle=none;rounded=0;html=1;startSize=10;endSize=10;jettySize=auto;orthogonalLoop=1;fontSize=14;endArrow=none;endFill=0;strokeWidth=2;" parent="1" source="6a7d8f32e03d9370-13" target="6a7d8f32e03d9370-15" edge="1">
          <mxGeometry relative="1" as="geometry" />
        </mxCell>
        <mxCell id="6a7d8f32e03d9370-52" style="edgeStyle=none;rounded=0;html=1;startSize=10;endSize=10;jettySize=auto;orthogonalLoop=1;fontSize=14;endArrow=none;endFill=0;strokeWidth=2;" parent="1" source="6a7d8f32e03d9370-13" target="6a7d8f32e03d9370-26" edge="1">
          <mxGeometry relative="1" as="geometry" />
        </mxCell>
        <mxCell id="6a7d8f32e03d9370-13" value="" style="verticalLabelPosition=bottom;aspect=fixed;html=1;verticalAlign=top;strokeColor=none;shape=mxgraph.citrix.router;fillColor=#66B2FF;gradientColor=#0066CC;fontSize=14;" parent="1" vertex="1">
          <mxGeometry x="973" y="587" width="55" height="36.5" as="geometry" />
        </mxCell>
        <mxCell id="6a7d8f32e03d9370-38" style="edgeStyle=none;rounded=0;html=1;startSize=10;endSize=10;jettySize=auto;orthogonalLoop=1;fontSize=14;endArrow=none;endFill=0;strokeWidth=2;entryX=0.255;entryY=0.539;entryDx=0;entryDy=0;entryPerimeter=0;" parent="1" source="6a7d8f32e03d9370-14" target="6a7d8f32e03d9370-13" edge="1">
          <mxGeometry relative="1" as="geometry">
            <mxPoint x="675" y="902" as="targetPoint" />
            <Array as="points" />
          </mxGeometry>
        </mxCell>
        <mxCell id="6a7d8f32e03d9370-14" value="" style="verticalLabelPosition=bottom;aspect=fixed;html=1;verticalAlign=top;strokeColor=none;shape=mxgraph.citrix.xenclient_synchronizer;fillColor=#CCCCCC;gradientColor=#000000;gradientDirection=south;fontSize=14;" parent="1" vertex="1">
          <mxGeometry x="782.9999999999999" y="594.5" width="76" height="91" as="geometry" />
        </mxCell>
        <mxCell id="-97BFzm_KFgKQTm4JAnl-47" value="" style="edgeStyle=none;curved=1;rounded=0;sketch=1;hachureGap=4;orthogonalLoop=1;jettySize=auto;html=1;fontFamily=Architects Daughter;fontSource=https%3A%2F%2Ffonts.googleapis.com%2Fcss%3Ffamily%3DArchitects%2BDaughter;fontSize=16;endArrow=open;startSize=14;endSize=14;sourcePerimeterSpacing=8;targetPerimeterSpacing=8;" parent="1" source="6a7d8f32e03d9370-15" target="-97BFzm_KFgKQTm4JAnl-44" edge="1">
          <mxGeometry relative="1" as="geometry" />
        </mxCell>
        <mxCell id="6a7d8f32e03d9370-15" value="Web Server" style="verticalLabelPosition=top;aspect=fixed;html=1;verticalAlign=bottom;strokeColor=none;shape=mxgraph.citrix.cache_server;fillColor=#66B2FF;gradientColor=#0066CC;fontSize=14;labelPosition=center;align=center;" parent="1" vertex="1">
          <mxGeometry x="1310" y="1045.25" width="71" height="97.5" as="geometry" />
        </mxCell>
        <mxCell id="6a7d8f32e03d9370-23" value="" style="verticalLabelPosition=bottom;aspect=fixed;html=1;verticalAlign=top;strokeColor=none;shape=mxgraph.citrix.home_office;fillColor=#66B2FF;gradientColor=#0066CC;fontSize=14;" parent="1" vertex="1">
          <mxGeometry x="530" y="469" width="80" height="55.5" as="geometry" />
        </mxCell>
        <mxCell id="6a7d8f32e03d9370-53" style="edgeStyle=none;rounded=0;html=1;startSize=10;endSize=10;jettySize=auto;orthogonalLoop=1;fontSize=14;endArrow=none;endFill=0;strokeWidth=2;" parent="1" source="6a7d8f32e03d9370-26" target="6a7d8f32e03d9370-29" edge="1">
          <mxGeometry relative="1" as="geometry" />
        </mxCell>
        <mxCell id="6a7d8f32e03d9370-54" style="edgeStyle=none;rounded=0;html=1;startSize=10;endSize=10;jettySize=auto;orthogonalLoop=1;fontSize=14;endArrow=none;endFill=0;strokeWidth=2;" parent="1" source="6a7d8f32e03d9370-26" target="6a7d8f32e03d9370-28" edge="1">
          <mxGeometry relative="1" as="geometry" />
        </mxCell>
        <mxCell id="6a7d8f32e03d9370-55" style="edgeStyle=none;rounded=0;html=1;startSize=10;endSize=10;jettySize=auto;orthogonalLoop=1;fontSize=14;endArrow=none;endFill=0;strokeWidth=2;" parent="1" source="6a7d8f32e03d9370-26" target="6a7d8f32e03d9370-27" edge="1">
          <mxGeometry relative="1" as="geometry" />
        </mxCell>
        <mxCell id="6a7d8f32e03d9370-26" value="" style="verticalLabelPosition=bottom;aspect=fixed;html=1;verticalAlign=top;strokeColor=none;shape=mxgraph.citrix.switch;fillColor=#66B2FF;gradientColor=#0066CC;fontSize=14;" parent="1" vertex="1">
          <mxGeometry x="1050" y="483" width="92" height="41.5" as="geometry" />
        </mxCell>
        <mxCell id="6a7d8f32e03d9370-27" value="Client" style="verticalLabelPosition=top;aspect=fixed;html=1;verticalAlign=bottom;strokeColor=none;shape=mxgraph.citrix.thin_client;fillColor=#66B2FF;gradientColor=#0066CC;fontSize=14;labelPosition=center;align=center;" parent="1" vertex="1">
          <mxGeometry x="1437" y="498" width="71" height="71" as="geometry" />
        </mxCell>
        <mxCell id="-97BFzm_KFgKQTm4JAnl-29" value="" style="edgeStyle=none;curved=1;rounded=0;sketch=1;hachureGap=4;orthogonalLoop=1;jettySize=auto;html=1;fontFamily=Architects Daughter;fontSource=https%3A%2F%2Ffonts.googleapis.com%2Fcss%3Ffamily%3DArchitects%2BDaughter;fontSize=16;endArrow=open;startSize=14;endSize=14;sourcePerimeterSpacing=8;targetPerimeterSpacing=8;" parent="1" source="6a7d8f32e03d9370-28" target="-97BFzm_KFgKQTm4JAnl-28" edge="1">
          <mxGeometry relative="1" as="geometry" />
        </mxCell>
        <mxCell id="-97BFzm_KFgKQTm4JAnl-30" value="VPN CO" style="edgeLabel;html=1;align=center;verticalAlign=middle;resizable=0;points=[];fontSize=20;fontFamily=Architects Daughter;" parent="-97BFzm_KFgKQTm4JAnl-29" vertex="1" connectable="0">
          <mxGeometry x="-0.2511" y="3" relative="1" as="geometry">
            <mxPoint x="-241" y="11" as="offset" />
          </mxGeometry>
        </mxCell>
        <mxCell id="6a7d8f32e03d9370-28" value="Client" style="verticalLabelPosition=top;aspect=fixed;html=1;verticalAlign=bottom;strokeColor=none;shape=mxgraph.citrix.thin_client;fillColor=#66B2FF;gradientColor=#0066CC;fontSize=14;labelPosition=center;align=center;" parent="1" vertex="1">
          <mxGeometry x="1359" y="374" width="71" height="71" as="geometry" />
        </mxCell>
        <mxCell id="6a7d8f32e03d9370-29" value="Client" style="verticalLabelPosition=top;aspect=fixed;html=1;verticalAlign=bottom;strokeColor=none;shape=mxgraph.citrix.thin_client;fillColor=#66B2FF;gradientColor=#0066CC;fontSize=14;labelPosition=center;align=center;" parent="1" vertex="1">
          <mxGeometry x="1203" y="338" width="71" height="71" as="geometry" />
        </mxCell>
        <mxCell id="6a7d8f32e03d9370-62" value="Citrix Network Architecture" style="text;strokeColor=none;fillColor=none;html=1;fontSize=24;fontStyle=1;verticalAlign=middle;align=center;" parent="1" vertex="1">
          <mxGeometry x="499" y="30" width="861" height="40" as="geometry" />
        </mxCell>
        <mxCell id="-97BFzm_KFgKQTm4JAnl-1" value="&lt;div&gt;&lt;font face=&quot;Helvetica&quot;&gt;router&lt;/font&gt;&lt;/div&gt;&lt;div&gt;&lt;font face=&quot;Helvetica&quot;&gt;IF: from = 192.168.0.?&lt;/font&gt;&lt;/div&gt;&lt;div&gt;&lt;font face=&quot;Helvetica&quot;&gt;THEN CHANGE TO:&lt;/font&gt;&lt;/div&gt;&lt;div&gt;&lt;font face=&quot;Helvetica&quot;&gt;97.5.23.53&lt;/font&gt;&lt;/div&gt;&lt;div&gt;&lt;font face=&quot;Helvetica&quot;&gt;IF DEST PORT = 668&lt;/font&gt;&lt;/div&gt;&lt;div&gt;&lt;font face=&quot;Helvetica&quot;&gt;CHANGE TO ADDR TO: 192.168.0.1&lt;/font&gt;&lt;/div&gt;&lt;div&gt;&lt;font face=&quot;Helvetica&quot;&gt;IF DEST PORT = 669&lt;/font&gt;&lt;/div&gt;&lt;div&gt;&lt;font face=&quot;Helvetica&quot;&gt;CHANGE ADDR TO: 192.168.0.2&lt;br&gt;&lt;/font&gt;&lt;/div&gt;" style="text;strokeColor=none;fillColor=none;html=1;align=center;verticalAlign=middle;whiteSpace=wrap;rounded=0;sketch=1;hachureGap=4;pointerEvents=0;fontFamily=Architects Daughter;fontSource=https%3A%2F%2Ffonts.googleapis.com%2Fcss%3Ffamily%3DArchitects%2BDaughter;fontSize=20;" parent="1" vertex="1">
          <mxGeometry x="750" y="210" width="271" height="86" as="geometry" />
        </mxCell>
        <mxCell id="-97BFzm_KFgKQTm4JAnl-2" value="192.168.0.0" style="text;strokeColor=none;fillColor=none;html=1;align=center;verticalAlign=middle;whiteSpace=wrap;rounded=0;sketch=1;hachureGap=4;pointerEvents=0;fontFamily=Architects Daughter;fontSource=https%3A%2F%2Ffonts.googleapis.com%2Fcss%3Ffamily%3DArchitects%2BDaughter;fontSize=20;" parent="1" vertex="1">
          <mxGeometry x="635" y="379" width="60" height="30" as="geometry" />
        </mxCell>
        <mxCell id="-97BFzm_KFgKQTm4JAnl-3" value="&lt;div&gt;192.168.0.1&lt;/div&gt;&lt;div&gt;2001:470:1f09:349:2c3b:4c3e:c17e:e89d&lt;br&gt;&lt;/div&gt;" style="text;strokeColor=none;fillColor=none;html=1;align=center;verticalAlign=middle;whiteSpace=wrap;rounded=0;sketch=1;hachureGap=4;pointerEvents=0;fontFamily=Architects Daughter;fontSource=https%3A%2F%2Ffonts.googleapis.com%2Fcss%3Ffamily%3DArchitects%2BDaughter;fontSize=20;" parent="1" vertex="1">
          <mxGeometry x="513" y="557" width="60" height="30" as="geometry" />
        </mxCell>
        <mxCell id="-97BFzm_KFgKQTm4JAnl-4" value="192.168.0.2" style="text;strokeColor=none;fillColor=none;html=1;align=center;verticalAlign=middle;whiteSpace=wrap;rounded=0;sketch=1;hachureGap=4;pointerEvents=0;fontFamily=Architects Daughter;fontSource=https%3A%2F%2Ffonts.googleapis.com%2Fcss%3Ffamily%3DArchitects%2BDaughter;fontSize=20;" parent="1" vertex="1">
          <mxGeometry x="540" y="708" width="60" height="30" as="geometry" />
        </mxCell>
        <mxCell id="-97BFzm_KFgKQTm4JAnl-5" value="192.168.0.254" style="text;strokeColor=none;fillColor=none;html=1;align=center;verticalAlign=middle;whiteSpace=wrap;rounded=0;sketch=1;hachureGap=4;pointerEvents=0;fontFamily=Architects Daughter;fontSource=https%3A%2F%2Ffonts.googleapis.com%2Fcss%3Ffamily%3DArchitects%2BDaughter;fontSize=20;" parent="1" vertex="1">
          <mxGeometry x="720" y="680" width="60" height="30" as="geometry" />
        </mxCell>
        <mxCell id="-97BFzm_KFgKQTm4JAnl-6" value="97.5.23.53" style="text;strokeColor=none;fillColor=none;html=1;align=center;verticalAlign=middle;whiteSpace=wrap;rounded=0;sketch=1;hachureGap=4;pointerEvents=0;fontFamily=Architects Daughter;fontSource=https%3A%2F%2Ffonts.googleapis.com%2Fcss%3Ffamily%3DArchitects%2BDaughter;fontSize=20;" parent="1" vertex="1">
          <mxGeometry x="847" y="564" width="60" height="30" as="geometry" />
        </mxCell>
        <mxCell id="-97BFzm_KFgKQTm4JAnl-7" value="105.36.27.2" style="text;strokeColor=none;fillColor=none;html=1;align=center;verticalAlign=middle;whiteSpace=wrap;rounded=0;sketch=1;hachureGap=4;pointerEvents=0;fontFamily=Architects Daughter;fontSource=https%3A%2F%2Ffonts.googleapis.com%2Fcss%3Ffamily%3DArchitects%2BDaughter;fontSize=20;" parent="1" vertex="1">
          <mxGeometry x="1330" y="980" width="60" height="30" as="geometry" />
        </mxCell>
        <mxCell id="-97BFzm_KFgKQTm4JAnl-8" value="88.27.53.0" style="text;strokeColor=none;fillColor=none;html=1;align=center;verticalAlign=middle;whiteSpace=wrap;rounded=0;sketch=1;hachureGap=4;pointerEvents=0;fontFamily=Architects Daughter;fontSource=https%3A%2F%2Ffonts.googleapis.com%2Fcss%3Ffamily%3DArchitects%2BDaughter;fontSize=20;" parent="1" vertex="1">
          <mxGeometry x="1274" y="605" width="60" height="30" as="geometry" />
        </mxCell>
        <mxCell id="-97BFzm_KFgKQTm4JAnl-9" value="Residential Private Networks" style="whiteSpace=wrap;html=1;fillColor=#dae8fc;fontSize=14;strokeColor=none;verticalAlign=top;" parent="1" vertex="1">
          <mxGeometry x="498" y="791" width="310" height="318" as="geometry" />
        </mxCell>
        <mxCell id="-97BFzm_KFgKQTm4JAnl-10" style="edgeStyle=none;rounded=0;html=1;startSize=10;endSize=10;jettySize=auto;orthogonalLoop=1;fontSize=14;endArrow=none;endFill=0;strokeWidth=2;" parent="1" source="-97BFzm_KFgKQTm4JAnl-11" target="-97BFzm_KFgKQTm4JAnl-14" edge="1">
          <mxGeometry relative="1" as="geometry" />
        </mxCell>
        <mxCell id="-97BFzm_KFgKQTm4JAnl-11" value="Client" style="verticalLabelPosition=bottom;aspect=fixed;html=1;verticalAlign=top;strokeColor=none;shape=mxgraph.citrix.laptop_2;fillColor=#66B2FF;gradientColor=#0066CC;fontSize=14;" parent="1" vertex="1">
          <mxGeometry x="607.9999999999999" y="831.5" width="116" height="86.5" as="geometry" />
        </mxCell>
        <mxCell id="-97BFzm_KFgKQTm4JAnl-12" style="edgeStyle=none;rounded=0;html=1;startSize=10;endSize=10;jettySize=auto;orthogonalLoop=1;fontSize=14;endArrow=none;endFill=0;strokeWidth=2;" parent="1" source="-97BFzm_KFgKQTm4JAnl-13" target="-97BFzm_KFgKQTm4JAnl-14" edge="1">
          <mxGeometry relative="1" as="geometry" />
        </mxCell>
        <mxCell id="-97BFzm_KFgKQTm4JAnl-13" value="Client" style="verticalLabelPosition=bottom;aspect=fixed;html=1;verticalAlign=top;strokeColor=none;shape=mxgraph.citrix.pda;fillColor=#66B2FF;gradientColor=#0066CC;fontSize=14;" parent="1" vertex="1">
          <mxGeometry x="528" y="995.5" width="30" height="61" as="geometry" />
        </mxCell>
        <mxCell id="-97BFzm_KFgKQTm4JAnl-14" value="" style="verticalLabelPosition=bottom;aspect=fixed;html=1;verticalAlign=top;strokeColor=none;shape=mxgraph.citrix.xenclient_synchronizer;fillColor=#CCCCCC;gradientColor=#000000;gradientDirection=south;fontSize=14;" parent="1" vertex="1">
          <mxGeometry x="770.9999999999999" y="965.5" width="76" height="91" as="geometry" />
        </mxCell>
        <mxCell id="-97BFzm_KFgKQTm4JAnl-15" value="" style="verticalLabelPosition=bottom;aspect=fixed;html=1;verticalAlign=top;strokeColor=none;shape=mxgraph.citrix.home_office;fillColor=#66B2FF;gradientColor=#0066CC;fontSize=14;" parent="1" vertex="1">
          <mxGeometry x="518" y="840" width="80" height="55.5" as="geometry" />
        </mxCell>
        <mxCell id="-97BFzm_KFgKQTm4JAnl-16" value="router" style="text;strokeColor=none;fillColor=none;html=1;align=center;verticalAlign=middle;whiteSpace=wrap;rounded=0;sketch=1;hachureGap=4;pointerEvents=0;fontFamily=Architects Daughter;fontSource=https%3A%2F%2Ffonts.googleapis.com%2Fcss%3Ffamily%3DArchitects%2BDaughter;fontSize=20;" parent="1" vertex="1">
          <mxGeometry x="779" y="905" width="60" height="30" as="geometry" />
        </mxCell>
        <mxCell id="-97BFzm_KFgKQTm4JAnl-17" value="192.168.0.0" style="text;strokeColor=none;fillColor=none;html=1;align=center;verticalAlign=middle;whiteSpace=wrap;rounded=0;sketch=1;hachureGap=4;pointerEvents=0;fontFamily=Architects Daughter;fontSource=https%3A%2F%2Ffonts.googleapis.com%2Fcss%3Ffamily%3DArchitects%2BDaughter;fontSize=20;" parent="1" vertex="1">
          <mxGeometry x="623" y="750" width="60" height="30" as="geometry" />
        </mxCell>
        <mxCell id="-97BFzm_KFgKQTm4JAnl-18" value="192.168.0.1" style="text;strokeColor=none;fillColor=none;html=1;align=center;verticalAlign=middle;whiteSpace=wrap;rounded=0;sketch=1;hachureGap=4;pointerEvents=0;fontFamily=Architects Daughter;fontSource=https%3A%2F%2Ffonts.googleapis.com%2Fcss%3Ffamily%3DArchitects%2BDaughter;fontSize=20;" parent="1" vertex="1">
          <mxGeometry x="548" y="910" width="60" height="30" as="geometry" />
        </mxCell>
        <mxCell id="-97BFzm_KFgKQTm4JAnl-19" value="192.168.0.2" style="text;strokeColor=none;fillColor=none;html=1;align=center;verticalAlign=middle;whiteSpace=wrap;rounded=0;sketch=1;hachureGap=4;pointerEvents=0;fontFamily=Architects Daughter;fontSource=https%3A%2F%2Ffonts.googleapis.com%2Fcss%3Ffamily%3DArchitects%2BDaughter;fontSize=20;" parent="1" vertex="1">
          <mxGeometry x="528" y="1079" width="60" height="30" as="geometry" />
        </mxCell>
        <mxCell id="-97BFzm_KFgKQTm4JAnl-20" value="192.168.0.254" style="text;strokeColor=none;fillColor=none;html=1;align=center;verticalAlign=middle;whiteSpace=wrap;rounded=0;sketch=1;hachureGap=4;pointerEvents=0;fontFamily=Architects Daughter;fontSource=https%3A%2F%2Ffonts.googleapis.com%2Fcss%3Ffamily%3DArchitects%2BDaughter;fontSize=20;" parent="1" vertex="1">
          <mxGeometry x="708" y="1051" width="60" height="30" as="geometry" />
        </mxCell>
        <mxCell id="-97BFzm_KFgKQTm4JAnl-22" value="" style="edgeStyle=none;orthogonalLoop=1;jettySize=auto;html=1;rounded=0;sketch=1;hachureGap=4;fontFamily=Architects Daughter;fontSource=https%3A%2F%2Ffonts.googleapis.com%2Fcss%3Ffamily%3DArchitects%2BDaughter;fontSize=16;endArrow=open;startSize=14;endSize=14;sourcePerimeterSpacing=8;targetPerimeterSpacing=8;curved=1;entryX=0.356;entryY=0.965;entryDx=0;entryDy=0;entryPerimeter=0;" parent="1" target="6a7d8f32e03d9370-13" edge="1">
          <mxGeometry width="120" relative="1" as="geometry">
            <mxPoint x="850" y="970" as="sourcePoint" />
            <mxPoint x="880" y="680" as="targetPoint" />
            <Array as="points">
              <mxPoint x="900" y="860" />
            </Array>
          </mxGeometry>
        </mxCell>
        <mxCell id="-97BFzm_KFgKQTm4JAnl-24" value="97.5.23.54" style="text;strokeColor=none;fillColor=none;html=1;align=center;verticalAlign=middle;whiteSpace=wrap;rounded=0;sketch=1;hachureGap=4;pointerEvents=0;fontFamily=Architects Daughter;fontSource=https%3A%2F%2Ffonts.googleapis.com%2Fcss%3Ffamily%3DArchitects%2BDaughter;fontSize=20;" parent="1" vertex="1">
          <mxGeometry x="870" y="990" width="60" height="30" as="geometry" />
        </mxCell>
        <mxCell id="-97BFzm_KFgKQTm4JAnl-25" value="&lt;div&gt;FROM: 88.27.53.9&lt;/div&gt;&lt;div&gt;TO: 97.5.23.53:669&lt;br&gt;&lt;/div&gt;" style="shape=note;whiteSpace=wrap;html=1;backgroundOutline=1;fontColor=#000000;darkOpacity=0.05;fillColor=#FFF9B2;strokeColor=none;fillStyle=solid;direction=west;gradientDirection=north;gradientColor=#FFF2A1;shadow=1;size=20;pointerEvents=1;sketch=1;hachureGap=4;fontFamily=Architects Daughter;fontSource=https%3A%2F%2Ffonts.googleapis.com%2Fcss%3Ffamily%3DArchitects%2BDaughter;fontSize=20;" parent="1" vertex="1">
          <mxGeometry x="973" y="870" width="140" height="160" as="geometry" />
        </mxCell>
        <mxCell id="-97BFzm_KFgKQTm4JAnl-28" value="Client" style="verticalLabelPosition=top;aspect=fixed;html=1;verticalAlign=bottom;strokeColor=none;shape=mxgraph.citrix.thin_client;fillColor=#66B2FF;gradientColor=#0066CC;fontSize=14;labelPosition=center;align=center;sketch=1;hachureGap=4;pointerEvents=0;fontFamily=Architects Daughter;fontSource=https%3A%2F%2Ffonts.googleapis.com%2Fcss%3Ffamily%3DArchitects%2BDaughter;" parent="1" vertex="1">
          <mxGeometry x="1359" y="183" width="71" height="71" as="geometry" />
        </mxCell>
        <mxCell id="-97BFzm_KFgKQTm4JAnl-38" value="&lt;div&gt;Call of Warefare&lt;/div&gt;&lt;div&gt;668&lt;br&gt;&lt;/div&gt;" style="shape=note;whiteSpace=wrap;html=1;backgroundOutline=1;fontColor=#000000;darkOpacity=0.05;fillColor=#FFF9B2;strokeColor=none;fillStyle=solid;direction=west;gradientDirection=north;gradientColor=#FFF2A1;shadow=1;size=20;pointerEvents=1;sketch=1;hachureGap=4;fontFamily=Architects Daughter;fontSource=https%3A%2F%2Ffonts.googleapis.com%2Fcss%3Ffamily%3DArchitects%2BDaughter;fontSize=20;" parent="1" vertex="1">
          <mxGeometry x="588" y="100" width="140" height="160" as="geometry" />
        </mxCell>
        <mxCell id="-97BFzm_KFgKQTm4JAnl-41" value="88.27.53.9" style="text;strokeColor=none;fillColor=none;html=1;align=center;verticalAlign=middle;whiteSpace=wrap;rounded=0;sketch=1;hachureGap=4;pointerEvents=0;fontFamily=Architects Daughter;fontSource=https%3A%2F%2Ffonts.googleapis.com%2Fcss%3Ffamily%3DArchitects%2BDaughter;fontSize=20;" parent="1" vertex="1">
          <mxGeometry x="1370" y="476" width="60" height="30" as="geometry" />
        </mxCell>
        <mxCell id="-97BFzm_KFgKQTm4JAnl-42" value="Text" style="text;strokeColor=none;fillColor=none;html=1;align=center;verticalAlign=middle;whiteSpace=wrap;rounded=0;sketch=1;hachureGap=4;pointerEvents=0;fontFamily=Architects Daughter;fontSource=https%3A%2F%2Ffonts.googleapis.com%2Fcss%3Ffamily%3DArchitects%2BDaughter;fontSize=20;" parent="1" vertex="1">
          <mxGeometry x="980" y="650" width="60" height="30" as="geometry" />
        </mxCell>
        <mxCell id="-97BFzm_KFgKQTm4JAnl-43" value="Text" style="text;strokeColor=none;fillColor=none;html=1;align=center;verticalAlign=middle;whiteSpace=wrap;rounded=0;sketch=1;hachureGap=4;pointerEvents=0;fontFamily=Architects Daughter;fontSource=https%3A%2F%2Ffonts.googleapis.com%2Fcss%3Ffamily%3DArchitects%2BDaughter;fontSize=20;" parent="1" vertex="1">
          <mxGeometry x="980" y="650" width="60" height="30" as="geometry" />
        </mxCell>
        <mxCell id="-97BFzm_KFgKQTm4JAnl-44" value="DATABASE" style="verticalLabelPosition=top;aspect=fixed;html=1;verticalAlign=bottom;strokeColor=none;shape=mxgraph.citrix.cache_server;fillColor=#66B2FF;gradientColor=#0066CC;fontSize=14;labelPosition=center;align=center;" parent="1" vertex="1">
          <mxGeometry x="1490" y="1051" width="71" height="97.5" as="geometry" />
        </mxCell>
        <mxCell id="-97BFzm_KFgKQTm4JAnl-45" value="" style="edgeStyle=none;orthogonalLoop=1;jettySize=auto;html=1;rounded=0;sketch=1;hachureGap=4;fontFamily=Architects Daughter;fontSource=https%3A%2F%2Ffonts.googleapis.com%2Fcss%3Ffamily%3DArchitects%2BDaughter;fontSize=16;endArrow=open;startSize=14;endSize=14;sourcePerimeterSpacing=8;targetPerimeterSpacing=8;curved=1;" parent="1" edge="1">
          <mxGeometry width="120" relative="1" as="geometry">
            <mxPoint x="1381" y="1093.29" as="sourcePoint" />
            <mxPoint x="1480" y="1093" as="targetPoint" />
            <Array as="points" />
          </mxGeometry>
        </mxCell>
        <mxCell id="-97BFzm_KFgKQTm4JAnl-46" style="edgeStyle=none;curved=1;rounded=0;sketch=1;hachureGap=4;orthogonalLoop=1;jettySize=auto;html=1;entryX=0.75;entryY=1;entryDx=0;entryDy=0;fontFamily=Architects Daughter;fontSource=https%3A%2F%2Ffonts.googleapis.com%2Fcss%3Ffamily%3DArchitects%2BDaughter;fontSize=16;endArrow=open;startSize=14;endSize=14;sourcePerimeterSpacing=8;targetPerimeterSpacing=8;" parent="1" source="-97BFzm_KFgKQTm4JAnl-3" target="-97BFzm_KFgKQTm4JAnl-3" edge="1">
          <mxGeometry relative="1" as="geometry" />
        </mxCell>
      </root>
    </mxGraphModel>
  </diagram>
</mxfile>
